<?xml version="1.0" encoding="UTF-8"?>
<svg xmlns="http://www.w3.org/2000/svg" xmlns:xlink="http://www.w3.org/1999/xlink" width="30pt" height="30pt" viewBox="0 0 30 30" version="1.1">
<g id="surface138670">
<path style=" stroke:none;fill-rule:nonzero;fill:rgb(40%,40%,40%);fill-opacity:1;" d="M 16.023438 28.5 C 10.320312 28.5 10.15625 22.046875 10.15625 21.308594 L 10.15625 12.113281 L 6.855469 12.113281 L 6.855469 9.25 C 7.597656 8.925781 12.574219 6.5625 12.667969 1.5 L 15.878906 1.5 L 15.878906 8.4375 L 21.957031 8.4375 L 21.957031 12.375 L 15.878906 12.375 L 15.878906 21.175781 C 15.878906 22.277344 16.542969 24.363281 19.0625 24.363281 C 20.933594 24.363281 22.53125 23.613281 23.144531 23.28125 L 23.144531 26.660156 C 22.785156 26.945312 20.621094 28.5 16.023438 28.5 Z M 16.023438 28.5 "/>
<path style=" stroke:none;fill-rule:nonzero;fill:rgb(40%,40%,40%);fill-opacity:1;" d="M 15.378906 2 L 15.378906 8.9375 L 21.457031 8.9375 L 21.457031 11.875 L 15.378906 11.875 L 15.378906 21.175781 C 15.378906 22.65625 16.359375 24.863281 19.0625 24.863281 C 20.515625 24.863281 21.804688 24.441406 22.644531 24.074219 L 22.644531 26.402344 C 21.992188 26.84375 19.902344 28 16.023438 28 C 13.828125 28 12.324219 27.03125 11.429688 25.039062 C 10.691406 23.394531 10.65625 21.644531 10.65625 21.308594 L 10.65625 11.613281 L 7.355469 11.613281 L 7.355469 9.566406 C 8.695312 8.914062 12.785156 6.5625 13.144531 2 L 15.378906 2 M 16.023438 1 L 12.523438 1 C 12.324219 1 12.167969 1.15625 12.167969 1.355469 C 12.167969 6.578125 6.636719 8.800781 6.578125 8.820312 C 6.441406 8.875 6.355469 9.007812 6.355469 9.152344 L 6.355469 12.257812 C 6.355469 12.453125 6.511719 12.613281 6.707031 12.613281 L 9.65625 12.613281 L 9.65625 21.308594 C 9.65625 22.097656 9.835938 29 16.023438 29 C 21.183594 29 23.433594 27.074219 23.527344 26.992188 C 23.605469 26.925781 23.644531 26.828125 23.644531 26.726562 L 23.644531 23.027344 C 23.644531 22.898438 23.574219 22.78125 23.464844 22.71875 C 23.410156 22.6875 23.351562 22.671875 23.289062 22.671875 C 23.226562 22.671875 23.160156 22.691406 23.105469 22.726562 C 23.085938 22.738281 21.25 23.863281 19.0625 23.863281 C 16.421875 23.863281 16.378906 21.285156 16.378906 21.175781 L 16.378906 12.875 L 22.101562 12.875 C 22.300781 12.875 22.460938 12.71875 22.460938 12.519531 L 22.460938 8.292969 C 22.460938 8.097656 22.300781 7.9375 22.101562 7.9375 L 16.378906 7.9375 L 16.378906 1.355469 C 16.378906 1.15625 16.21875 1 16.023438 1 Z M 16.023438 1 "/>
</g>
</svg>
